<svg width="100" height="100" xmlns="http://www.w3.org/2000/svg">
  <defs>
    <pattern id="hexagons" width="50" height="43.4" patternUnits="userSpaceOnUse" patternTransform="scale(0.5)">
      <polygon points="24.8,22 12.4,22 6.2,11 12.4,0 24.8,0 31,11" fill="none" stroke="#2563eb" stroke-width="1" opacity="0.3" />
      <polygon points="43.8,22 31.4,22 25.2,11 31.4,0 43.8,0 50,11" fill="none" stroke="#2563eb" stroke-width="1" opacity="0.3" />
      <polygon points="34.3,32.8 21.9,32.8 15.7,21.8 21.9,10.8 34.3,10.8 40.5,21.8" fill="none" stroke="#2563eb" stroke-width="1" opacity="0.3" />
      <polygon points="14.3,32.8 1.9,32.8 -4.3,21.8 1.9,10.8 14.3,10.8 20.5,21.8" fill="none" stroke="#2563eb" stroke-width="1" opacity="0.3" />
      <polygon points="24.8,43.4 12.4,43.4 6.2,32.4 12.4,21.4 24.8,21.4 31,32.4" fill="none" stroke="#2563eb" stroke-width="1" opacity="0.3" />
      <polygon points="43.8,43.4 31.4,43.4 25.2,32.4 31.4,21.4 43.8,21.4 50,32.4" fill="none" stroke="#2563eb" stroke-width="1" opacity="0.3" />
    </pattern>
  </defs>
  <rect width="100%" height="100%" fill="url(#hexagons)" />
</svg>